<svg width="79" height="77" viewBox="0 0 79 77" fill="none" xmlns="http://www.w3.org/2000/svg">
<path fill-rule="evenodd" clip-rule="evenodd" d="M32.0397 5.01896C31.1809 3.79886 29.3779 3.69894 28.2886 4.94401L4.31855 32.3423C2.81781 34.0577 4.03601 36.7421 6.31521 36.7421H9.95916C12.8895 36.7421 15.265 39.1176 15.265 42.0479V53.1041C15.265 54.5692 16.4528 55.757 17.918 55.757H27.6026C29.7948 55.757 31.7613 57.1051 32.5516 59.1499L37.2687 71.3532C38.0736 73.4354 40.9336 73.6532 42.0444 71.7168L49.671 58.4226C50.6169 56.7738 52.3725 55.757 54.2733 55.757H62.5387C64.0038 55.757 65.1916 54.5692 65.1916 53.1041V42.0479C65.1916 39.1176 67.5671 36.7421 70.4975 36.7421H72.6589C75.0962 36.7421 76.2436 33.7313 74.4246 32.1091L50.1224 10.4373C49.1871 9.6032 47.8599 9.56206 46.9779 10.2799C44.9591 11.9232 43.1239 13.7213 41.4877 15.6039C43.6205 19.7474 45.5243 24.1283 46.7462 28.2078C48.021 32.4639 48.6211 36.6058 47.7715 39.8484C47.3374 41.505 46.5141 42.9658 45.182 44.0519C43.8539 45.1347 42.1244 45.7601 40.0223 45.9327C35.9169 46.2699 32.8784 44.9126 31.1618 42.1789C29.5154 39.5569 29.2731 35.9527 29.9935 32.1321C30.9874 26.8615 33.8831 20.7726 38.3132 15.2658C36.2506 11.4196 34.0246 7.83931 32.0397 5.01896ZM40.1593 13.1051C38.1767 9.49032 36.0839 6.15579 34.2091 3.49206C32.2686 0.734867 28.4051 0.781789 26.2919 3.19719L2.32189 30.5955C-0.679594 34.0262 1.75681 39.395 6.31521 39.395H9.95916C11.4243 39.395 12.6121 40.5827 12.6121 42.0479V53.1041C12.6121 56.0344 14.9876 58.4099 17.918 58.4099H27.6026C28.6987 58.4099 29.6819 59.084 30.0771 60.1063L34.7942 72.3097C36.404 76.4741 42.1239 76.9096 44.3456 73.0369L51.9721 59.7427C52.4451 58.9183 53.3229 58.4099 54.2733 58.4099H62.5387C65.469 58.4099 67.8445 56.0344 67.8445 53.1041V42.0479C67.8445 40.5827 69.0323 39.395 70.4975 39.395H72.6589C77.5335 39.395 79.8284 33.3735 76.1903 30.1291L51.8881 8.45728C50.0684 6.83453 47.2841 6.61005 45.3032 8.22243C43.4413 9.73792 41.7225 11.3813 40.1593 13.1051ZM39.6548 17.8544C35.8879 22.7949 33.4524 28.1057 32.6005 32.6237C31.9386 36.1341 32.2689 38.9531 33.4086 40.7681C34.4782 42.4715 36.4392 43.5651 39.8052 43.2887C41.5047 43.1491 42.6853 42.6645 43.5056 41.9958C44.3218 41.3303 44.885 40.398 45.2052 39.176C45.864 36.6614 45.4434 33.1043 44.2048 28.969C43.1356 25.3993 41.507 21.5577 39.6548 17.8544Z" fill="url(#paint0_linear)"/>
<path fill-rule="evenodd" clip-rule="evenodd" d="M25.9156 2.86796C28.2193 0.234768 32.4716 0.154517 34.618 3.20429C36.3982 5.73361 38.3712 8.86035 40.2613 12.2558C41.7127 10.7009 43.2912 9.21545 44.9876 7.83465C47.1766 6.05288 50.2355 6.31362 52.2209 8.08411L76.523 29.756C80.504 33.3061 77.9929 39.895 72.6589 39.895H70.4975C69.3084 39.895 68.3445 40.8589 68.3445 42.0479V53.1041C68.3445 56.3106 65.7451 58.9099 62.5387 58.9099H54.2733C53.502 58.9099 52.7896 59.3225 52.4058 59.9915L44.7793 73.2857C42.3482 77.5234 36.0893 77.0468 34.3279 72.49L29.6108 60.2866C29.2901 59.4569 28.4921 58.9099 27.6026 58.9099H17.918C14.7115 58.9099 12.1121 56.3105 12.1121 53.1041V42.0479C12.1121 40.8589 11.1482 39.895 9.95916 39.895H6.31521C1.32724 39.895 -1.33875 34.0203 1.94557 30.2662L25.9156 2.86796ZM33.8003 3.77984C32.0656 1.31522 28.5908 1.32881 26.6682 3.52641L2.6982 30.9247C-0.0204368 34.0322 2.18637 38.895 6.31521 38.895H9.95916C11.7005 38.895 13.1121 40.3066 13.1121 42.0479V53.1041C13.1121 55.7583 15.2637 57.9099 17.918 57.9099H27.6026C28.9053 57.9099 30.0738 58.711 30.5435 59.9261L35.2606 72.1294C36.7187 75.9014 41.8995 76.2959 43.9119 72.7881L51.5384 59.4939C52.1005 58.5142 53.1438 57.9099 54.2733 57.9099H62.5387C65.1929 57.9099 67.3445 55.7583 67.3445 53.1041V42.0479C67.3445 40.3066 68.7561 38.895 70.4975 38.895H72.6589C77.0742 38.895 79.1528 33.4409 75.8575 30.5023L51.5553 8.83045C49.9013 7.35545 47.3916 7.16722 45.6188 8.61021C43.7773 10.1092 42.0767 11.735 40.5297 13.441L40.0583 13.9607L39.7209 13.3455C37.7467 9.74612 35.6637 6.42748 33.8003 3.77984ZM31.6308 5.30673C30.9716 4.3702 29.5561 4.25461 28.6649 5.27324L4.69486 32.6715C3.47696 34.0636 4.46557 36.2421 6.31521 36.2421H9.95916C13.1656 36.2421 15.765 38.8414 15.765 42.0479V53.1041C15.765 54.2931 16.7289 55.257 17.918 55.257H27.6026C30.0014 55.257 32.1531 56.7322 33.018 58.9696L37.7351 71.1729C38.3883 72.8627 40.7092 73.0394 41.6107 71.468L49.2373 58.1738C50.2723 56.3697 52.1933 55.257 54.2733 55.257H62.5387C63.7277 55.257 64.6916 54.2931 64.6916 53.1041V42.0479C64.6916 38.8414 67.291 36.2421 70.4975 36.2421H72.6589C74.6368 36.2421 75.568 33.7988 74.0918 32.4823L49.7896 10.8104C49.0231 10.1269 47.9705 10.1167 47.2936 10.6677C45.389 12.218 43.6491 13.9082 42.0876 15.6779C44.1664 19.7491 46.0216 24.0459 47.2252 28.0643C48.5068 32.3434 49.1407 36.5954 48.2551 39.9751C47.7997 41.7135 46.9274 43.274 45.4979 44.4394C44.074 45.6003 42.2411 46.2522 40.0632 46.431C35.8193 46.7796 32.5772 45.3732 30.7384 42.4448C28.9964 39.6706 28.7708 35.9184 29.5022 32.0395C30.4983 26.7568 33.3613 20.7019 37.7163 15.2119C35.707 11.4929 33.5536 8.03878 31.6308 5.30673ZM27.9123 4.61478C29.1996 3.14328 31.3903 3.22751 32.4485 4.73118C34.4457 7.5689 36.6823 11.1665 38.7539 15.0295L38.9103 15.3212L38.7028 15.5792C34.3141 21.0345 31.4607 27.0495 30.4848 32.2248C29.7754 35.9871 30.0344 39.4432 31.5853 41.913C33.1795 44.4519 36.0145 45.7602 39.9814 45.4344C42.0077 45.268 43.6337 44.6691 44.866 43.6644C46.1008 42.6576 46.8752 41.2965 47.2878 39.7217C48.1014 36.6162 47.5351 32.5845 46.2672 28.3512C45.0569 24.3105 43.1671 19.9591 41.0432 15.8327L40.8882 15.5315L41.1104 15.2759C42.7645 13.3727 44.6201 11.5544 46.6623 9.89216C47.7493 9.00738 49.3511 9.07951 50.4552 10.0641L74.7573 31.736C76.9193 33.6639 75.5555 37.2421 72.6589 37.2421H70.4975C67.8433 37.2421 65.6916 39.3937 65.6916 42.0479V53.1041C65.6916 54.8454 64.28 56.257 62.5387 56.257H54.2733C52.5516 56.257 50.9614 57.178 50.1047 58.6714L42.4781 71.9656C41.1579 74.2669 37.7589 74.0081 36.8024 71.5335L32.0853 59.3301C31.3694 57.4781 29.5882 56.257 27.6026 56.257H17.918C16.1766 56.257 14.765 54.8454 14.765 53.1041V42.0479C14.765 39.3937 12.6134 37.2421 9.95916 37.2421H6.31521C3.60644 37.2421 2.15865 34.0518 3.94224 32.0131L27.9123 4.61478ZM39.7434 16.9136L40.102 17.6307C41.9624 21.3505 43.6038 25.2198 44.6838 28.8255C45.9292 32.9835 46.3836 36.6509 45.6888 39.3027C45.3471 40.6068 44.7348 41.6387 43.8215 42.3833C42.9057 43.13 41.6216 43.6412 39.8461 43.787C36.3395 44.075 34.1761 42.9307 32.9851 41.034C31.75 39.0671 31.4362 36.1002 32.1092 32.5311C32.9782 27.9221 35.4529 22.5407 39.2572 17.5512L39.7434 16.9136ZM39.5677 18.8055C36.1149 23.5088 33.8899 28.4843 33.0918 32.7164C32.441 36.1681 32.7878 38.8392 33.832 40.5023C34.7802 42.0123 36.5388 43.0552 39.7642 42.7904C41.3877 42.657 42.465 42.199 43.1896 41.6082C43.9087 41.022 44.4228 40.1892 44.7215 39.0493C45.3444 36.6719 44.9576 33.2251 43.7258 29.1124C42.7369 25.8107 41.2613 22.2643 39.5677 18.8055Z" fill="url(#paint1_linear)"/>
<defs>
<linearGradient id="paint0_linear" x1="6.49708" y1="5.89616" x2="75.3596" y2="61.4694" gradientUnits="userSpaceOnUse">
<stop stop-color="#8C61FF"/>
<stop offset="1" stop-color="#343090"/>
</linearGradient>
<linearGradient id="paint1_linear" x1="6.49708" y1="5.89616" x2="75.3596" y2="61.4694" gradientUnits="userSpaceOnUse">
<stop stop-color="#8C61FF"/>
<stop offset="1" stop-color="#343090"/>
</linearGradient>
</defs>
</svg>
