<svg width="101" height="55" viewBox="0 0 101 55" fill="none" xmlns="http://www.w3.org/2000/svg">
<path d="M11.9177 25.0758C11.5654 25.2726 11.2597 25.3711 11.0006 25.3711H3.3527C2.80346 25.3711 2.37339 25.1587 2.0625 24.7338C1.79306 24.3711 1.65834 23.9099 1.65834 23.3503V4.29272C1.65834 3.76421 1.82415 3.32896 2.15577 2.98698C2.49775 2.645 2.93818 2.47401 3.47705 2.47401C4.62735 2.47401 5.20249 3.12688 5.20249 4.43262V22.0912H10.5498C11.0887 22.0912 11.5602 22.2156 11.9644 22.4643C12.3582 22.7855 12.5551 23.1897 12.5551 23.6767C12.5551 24.3711 12.3426 24.8374 11.9177 25.0758Z" fill="#343090"/>
<path d="M16.6433 6.03371C16.2184 6.4275 15.7261 6.6244 15.1665 6.6244C14.5966 6.6244 14.0888 6.41714 13.6432 6.00262C13.239 5.53628 13.0369 5.0544 13.0369 4.55698C13.0369 4.04919 13.239 3.55695 13.6432 3.08025C14.1095 2.67609 14.6173 2.47401 15.1665 2.47401C15.7572 2.47401 16.2547 2.68127 16.6588 3.09579C17.0733 3.49995 17.2806 3.98701 17.2806 4.55698C17.2806 5.13731 17.0681 5.62955 16.6433 6.03371ZM16.4723 25.0758C16.1199 25.4074 15.6847 25.5732 15.1665 25.5732C14.752 25.5732 14.353 25.4074 13.9696 25.0758C13.5965 24.7441 13.41 24.3193 13.41 23.8011V9.84212C13.41 9.29288 13.581 8.85245 13.923 8.52083C14.265 8.18922 14.6795 8.02341 15.1665 8.02341C15.695 8.02341 16.1251 8.18922 16.4567 8.52083C16.7883 8.84209 16.9542 9.26179 16.9542 9.77994V23.8011C16.9542 24.34 16.7935 24.7649 16.4723 25.0758Z" fill="#343090"/>
<path d="M32.8251 25.1535C32.5453 25.4333 32.1671 25.5732 31.6904 25.5732C31.0893 25.5732 30.5193 25.3037 29.9805 24.7649L23.4207 18.1584V23.8011C23.4207 24.3193 23.2549 24.7441 22.9233 25.0758C22.602 25.4074 22.1719 25.5732 21.6331 25.5732C21.2185 25.5732 20.8196 25.4074 20.4361 25.0758C20.0631 24.7441 19.8765 24.3193 19.8765 23.8011V2.5051C19.8765 1.95586 20.0579 1.53616 20.4206 1.246C20.7315 0.966195 21.1356 0.826294 21.6331 0.826294C22.8248 0.826294 23.4207 1.40662 23.4207 2.56728V13.3863L29.3431 8.56747C29.768 8.21512 30.224 8.03895 30.7111 8.03895C31.167 8.03895 31.5401 8.20476 31.8303 8.53638C32.1308 8.85763 32.2811 9.24106 32.2811 9.68667C32.2811 10.1841 32.0634 10.5986 31.6282 10.9302L25.4415 15.6713L32.6075 22.4954C33.0427 22.9202 33.2604 23.4539 33.2604 24.0964C33.2604 24.511 33.1153 24.8633 32.8251 25.1535Z" fill="#343090"/>
<path d="M46.6753 18.3139H36.5092C36.5817 19.5782 37.0532 20.5937 37.9237 21.3606C38.8046 22.1171 39.9134 22.4954 41.2502 22.4954C42.4731 22.4954 43.6493 22.1378 44.7789 21.4228C45.9188 20.6974 46.6131 20.3347 46.8618 20.3347C47.2763 20.3347 47.6183 20.4901 47.8878 20.801C48.1261 21.0808 48.2453 21.428 48.2453 21.8425C48.2453 22.9202 47.1572 23.9047 44.9809 24.7959C43.7477 25.3037 42.4524 25.5576 41.0948 25.5576C39.1776 25.5576 37.5351 25.055 36.1672 24.0498C34.7993 23.0342 33.8459 21.6352 33.307 19.8528C32.9961 18.8269 32.8407 17.8268 32.8407 16.8527L32.8717 16.7283C32.9547 14.4899 33.6904 12.5469 35.0791 10.8991C36.6024 9.10634 38.504 8.20994 40.7839 8.20994C43.9032 8.20994 46.183 9.66076 47.6235 12.5624C48.2867 13.8889 48.6183 15.2464 48.6183 16.6351C48.6183 17.7543 47.9707 18.3139 46.6753 18.3139ZM40.9083 11.2722C39.6025 11.2722 38.5507 11.6816 37.7527 12.5002C36.9859 13.2775 36.5713 14.2878 36.5092 15.5314H45.0276C44.9654 14.2671 44.582 13.2515 43.8773 12.4847C43.1415 11.6764 42.1518 11.2722 40.9083 11.2722Z" fill="#343090"/>
<path d="M25.7057 54.0602C25.3534 54.454 24.9285 54.6509 24.4311 54.6509C23.374 54.6509 22.7678 54.1327 22.6124 53.0964L20.2496 37.0545L15.2132 53.283C14.9334 54.1949 14.353 54.6509 13.4722 54.6509C13.0784 54.6509 12.7053 54.5162 12.353 54.2467C12.011 53.9669 11.783 53.6457 11.669 53.283L6.69477 37.0545L4.28537 53.2208C4.21283 53.6871 3.99002 54.0809 3.61695 54.4022C3.25425 54.7234 2.82936 54.8841 2.3423 54.8841C1.84488 54.8841 1.43036 54.6664 1.09874 54.2312C0.798213 53.8374 0.647949 53.397 0.647949 52.9099L0.710127 52.257L4.02111 33.6658C4.14547 32.9715 4.43563 32.417 4.8916 32.0025C5.42012 31.6087 5.95899 31.4118 6.50823 31.4118C7.78288 31.4118 8.59638 32.0025 8.94872 33.1839L13.41 48.0445L17.949 33.0596C18.2806 31.9611 19.0734 31.4118 20.3273 31.4118C21.7781 31.4118 22.6279 32.1217 22.8766 33.5414L26.1876 52.3969C26.1876 53.1534 26.027 53.7079 25.7057 54.0602Z" fill="#343090"/>
<path d="M31.4416 35.0337C31.0168 35.4275 30.5245 35.6244 29.9649 35.6244C29.395 35.6244 28.8872 35.4171 28.4416 35.0026C28.0374 34.5363 27.8353 34.0544 27.8353 33.557C27.8353 33.0492 28.0374 32.5569 28.4416 32.0803C28.9079 31.6761 29.4157 31.474 29.9649 31.474C30.5556 31.474 31.053 31.6813 31.4572 32.0958C31.8717 32.5 32.079 32.987 32.079 33.557C32.079 34.1373 31.8665 34.6296 31.4416 35.0337ZM31.2707 54.0757C30.9183 54.4074 30.4831 54.5732 29.9649 54.5732C29.5504 54.5732 29.1514 54.4074 28.768 54.0757C28.3949 53.7441 28.2084 53.3192 28.2084 52.8011V38.8421C28.2084 38.2929 28.3794 37.8524 28.7214 37.5208C29.0633 37.1892 29.4779 37.0234 29.9649 37.0234C30.4934 37.0234 30.9235 37.1892 31.2551 37.5208C31.5867 37.8421 31.7525 38.2618 31.7525 38.7799V52.8011C31.7525 53.34 31.5919 53.7649 31.2707 54.0757Z" fill="#343090"/>
<path d="M38.2191 38.7955C39.359 37.7385 40.7891 37.2099 42.5093 37.2099C44.5198 37.2099 46.0898 37.8317 47.2193 39.0753C48.3075 40.2567 48.8515 41.8215 48.8515 43.7697V52.8166C48.8515 53.3037 48.6805 53.7079 48.3385 54.0291C47.9966 54.34 47.5717 54.4954 47.0639 54.4954C46.5768 54.4954 46.1623 54.3348 45.8203 54.0136C45.4784 53.682 45.3074 53.283 45.3074 52.8166V43.8319C45.3074 42.8267 44.9809 41.9925 44.3281 41.3292C43.6752 40.666 42.8254 40.3344 41.7788 40.3344C40.701 40.3344 39.8357 40.6712 39.1828 41.3448C38.5403 42.008 38.2191 42.8578 38.2191 43.8941V52.8166C38.2191 53.3244 38.0584 53.7545 37.7372 54.1068C37.4263 54.4592 37.0118 54.6353 36.4936 54.6353C35.9858 54.6353 35.5558 54.454 35.2034 54.0913C34.8511 53.7286 34.6749 53.3037 34.6749 52.8166V39.0131C34.6749 38.4639 34.8459 38.0286 35.1879 37.7074C35.5299 37.3758 35.9444 37.2099 36.4314 37.2099C37.5403 37.2099 38.1362 37.7385 38.2191 38.7955Z" fill="#343090"/>
<path d="M62.7794 53.0187C61.712 54.0447 60.4011 54.5576 58.8466 54.5576C56.3906 54.5576 54.432 53.6716 52.9708 51.8995C51.6133 50.2725 50.9345 48.2569 50.9345 45.8527C50.9345 43.521 51.5873 41.5054 52.8931 39.8059C54.3232 37.9198 56.1937 36.9768 58.5047 36.9768C60.1731 36.9768 61.5721 37.5156 62.7017 38.5934L62.7639 31.4896C62.7639 30.9921 62.9297 30.5828 63.2613 30.2615C63.5929 29.9299 64.0126 29.7641 64.5204 29.7641C65.0489 29.7641 65.4842 29.9351 65.8261 30.2771C66.1681 30.6087 66.3391 31.0336 66.3391 31.5517V52.8011C66.3391 53.3089 66.1681 53.7286 65.8261 54.0602C65.4842 54.3918 65.0489 54.5576 64.5204 54.5576C64.0955 54.5576 63.7069 54.4022 63.3546 54.0913C63.0126 53.7804 62.8209 53.4229 62.7794 53.0187ZM62.5307 42.7282C61.7638 40.9665 60.5255 40.0857 58.8156 40.0857C57.0124 40.0857 55.7585 41.0598 55.0538 43.008C54.7014 43.9614 54.5253 44.8682 54.5253 45.7283C54.5253 47.2932 54.888 48.6611 55.6134 49.8321C56.2973 50.9098 57.2818 51.4487 58.5668 51.4487C60.0902 51.4487 61.256 50.8528 62.0644 49.6611C62.7483 48.6352 63.0903 47.345 63.0903 45.7905C63.0903 44.5988 62.9038 43.578 62.5307 42.7282Z" fill="#343090"/>
<path d="M82.1479 47.3139H71.9818C72.0543 48.5782 72.5258 49.5937 73.3963 50.3606C74.2772 51.1171 75.386 51.4954 76.7228 51.4954C77.9457 51.4954 79.1219 51.1378 80.2514 50.4228C81.3914 49.6974 82.0857 49.3347 82.3344 49.3347C82.7489 49.3347 83.0909 49.4901 83.3604 49.801C83.5987 50.0808 83.7179 50.428 83.7179 50.8425C83.7179 51.9202 82.6298 52.9047 80.4535 53.7959C79.2203 54.3037 77.9249 54.5576 76.5674 54.5576C74.6502 54.5576 73.0077 54.055 71.6398 53.0498C70.2719 52.0342 69.3185 50.6352 68.7796 48.8528C68.4687 47.8268 68.3133 46.8268 68.3133 45.8527L68.3443 45.7283C68.4272 43.4899 69.163 41.5469 70.5517 39.8991C72.075 38.1063 73.9766 37.2099 76.2565 37.2099C79.3758 37.2099 81.6556 38.6608 83.0961 41.5624C83.7593 42.8889 84.0909 44.2464 84.0909 45.6351C84.0909 46.7543 83.4433 47.3139 82.1479 47.3139ZM76.3809 40.2722C75.0751 40.2722 74.0233 40.6815 73.2253 41.5002C72.4585 42.2775 72.0439 43.2878 71.9818 44.5314H80.5002C80.438 43.2671 80.0546 42.2515 79.3499 41.4847C78.6141 40.6764 77.6244 40.2722 76.3809 40.2722Z" fill="#343090"/>
<path d="M97.1017 53.0187C96.0343 54.0447 94.7234 54.5576 93.169 54.5576C90.7129 54.5576 88.7543 53.6716 87.2931 51.8995C85.9356 50.2725 85.2568 48.2569 85.2568 45.8527C85.2568 43.521 85.9097 41.5054 87.2154 39.8059C88.6455 37.9198 90.516 36.9768 92.827 36.9768C94.4954 36.9768 95.8944 37.5156 97.024 38.5934L97.0862 31.4896C97.0862 30.9921 97.252 30.5828 97.5836 30.2615C97.9152 29.9299 98.3349 29.7641 98.8427 29.7641C99.3712 29.7641 99.8065 29.9351 100.148 30.2771C100.49 30.6087 100.661 31.0336 100.661 31.5517V52.8011C100.661 53.3089 100.49 53.7286 100.148 54.0602C99.8065 54.3918 99.3712 54.5576 98.8427 54.5576C98.4178 54.5576 98.0292 54.4022 97.6769 54.0913C97.3349 53.7804 97.1432 53.4229 97.1017 53.0187ZM96.853 42.7282C96.0861 40.9665 94.8478 40.0857 93.1379 40.0857C91.3347 40.0857 90.0808 41.0598 89.3761 43.008C89.0237 43.9614 88.8476 44.8682 88.8476 45.7283C88.8476 47.2932 89.2103 48.6611 89.9357 49.8321C90.6197 50.9098 91.6041 51.4487 92.8892 51.4487C94.4125 51.4487 95.5784 50.8528 96.3867 49.6611C97.0706 48.6352 97.4126 47.345 97.4126 45.7905C97.4126 44.5988 97.2261 43.578 96.853 42.7282Z" fill="#343090"/>
</svg>
